# xmcd
#
# Track frame offsets:
#	150
#	11210
#	25113
#	40525
#	54528
#	74108
#	87480
#	101753
#	115553
#	136713
#	149110
#	163335
#	178983
#	189325
#	201733
#	216413
# Disc length: 3069 seconds
# Revision: 2
# Processed by: cddbd v1.5.1PL2 Copyright (c) Steve Scherf et al.
#
# Submitted via: libkcddb 0.21
#
DISCID=fb0bfb10
DTITLE=Louis Armstrong - Hello Louis! (compact 1)
DYEAR=1999
DGENRE=Jazz
TTITLE0=HELLO DOLLI
TTITLE1=GEORGIA ON MY MIND
TTITLE2=LA WIE EN ROSE
TTITLE3=SOME OF THESE DAYS
TTITLE4=I CAN'T GIVE YOU ANYTHING BUT LOVE
TTITLE5=MOON RIVER
TTITLE6=DOWN BY THE RIVERSIDE
TTITLE7=C'EST SI BON
TTITLE8=JEEPERS CREEPERS
TTITLE9=RAMONA
TTITLE10=SWING LOW SWEET CHARIOT
TTITLE11=TENDERLI
TTITLE12=WHAT A WONDERFUL WORLD
TTITLE13=CABARET
TTITLE14=DREAM A LITTLE DREAM OF ME
TTITLE15=THERE MUST BE A WAY
EXTD=
EXTT0=
EXTT1=
EXTT2=
EXTT3=
EXTT4=
EXTT5=
EXTT6=
EXTT7=
EXTT8=
EXTT9=
EXTT10=
EXTT11=
EXTT12=
EXTT13=
EXTT14=
EXTT15=
PLAYORDER=
